<svg xmlns="http://www.w3.org/2000/svg" viewBox="0 0 1386 280" role="img" aria-labelledby="gc-t">
  <title id="gc-t">Grand Center</title>
    <path d="M279.48 279.637H81.8978C35.9191 277.886 0 240.525 0 194.63V0H224.536C254.823 0 279.535 24.6706 279.535 55.0302V279.691L279.48 279.637ZM7.1073 7.05656V194.63C7.1073 236.75 40.0195 270.994 82.0618 272.58H272.428V55.0302C272.428 28.6092 250.942 7.11126 224.536 7.11126H7.1073V7.05656Z" fill="currentColor"></path>
    <path d="M110.382 201.96C92.3951 201.96 77.7978 187.355 77.7978 169.358V75.7078H163.632C178.721 76.5283 191.569 85.4447 198.02 98.245H226.723C222.021 72.2069 199.934 52.2406 172.926 50.7637H51.8289V170.944C51.8289 202.945 77.7431 228.928 109.726 228.928H173.473V202.015H110.327L110.382 201.96Z" fill="currentColor"></path>
    <path d="M227.652 126.963H120.715C120.605 127.565 120.551 128.222 120.496 128.823V132.215C121.371 144.085 131.266 153.439 143.349 153.439H202.394L202.503 228.928H227.597V153.439V126.963H227.652Z" fill="currentColor"></path>
  <g transform="translate(360, -262)">
    <path d="M79.5469 441.39C76.7587 443.196 73.7517 444.727 70.4715 446.04C67.2458 447.353 63.7469 448.392 60.0292 449.158C56.3116 449.924 52.3752 450.307 48.3295 450.307C41.0582 450.307 34.443 449.103 28.4838 446.642C22.5246 444.18 17.4402 440.843 13.2305 436.522C9.02078 432.2 5.7405 427.113 3.4443 421.26C1.1481 415.407 0 409.062 0 402.224C0 395.386 1.1481 389.424 3.49897 383.57C5.84984 377.717 9.1848 372.575 13.4492 368.199C17.7135 363.768 22.798 360.322 28.7025 357.751C34.607 355.18 41.0582 353.867 48.1108 353.867C52.2112 353.867 55.9289 354.141 59.2091 354.742C62.5441 355.344 65.6057 356.165 68.5033 357.204C71.3462 358.243 74.0251 359.556 76.54 361.143C79.0549 362.729 81.5151 364.479 83.9206 366.558L73.5331 378.975C71.7289 377.444 69.9247 376.076 68.0659 374.818C66.2071 373.56 64.2389 372.521 62.2161 371.7C60.1932 370.879 57.9517 370.168 55.4915 369.731C53.0313 369.238 50.3524 368.965 47.4548 368.965C43.1904 368.965 39.1994 369.84 35.5364 371.591C31.8734 373.341 28.6478 375.693 25.9689 378.757C23.2354 381.765 21.1032 385.321 19.5724 389.314C18.0416 393.307 17.2215 397.574 17.2215 402.114C17.2215 406.928 17.9869 411.359 19.5177 415.462C21.0485 419.564 23.1807 423.12 25.9689 426.074C28.7572 429.028 32.0921 431.38 35.9738 433.076C39.8555 434.771 44.1745 435.592 48.9856 435.592C53.414 435.592 57.569 434.936 61.4507 433.623C65.3323 432.31 68.6673 430.614 71.5102 428.481V410.921H47.6735V396.644H87.3649V435.811C85.0687 437.78 82.4992 439.64 79.7109 441.39" fill="currentColor"></path>
    <path d="M168.333 448.721L145.371 416.228H124.815V448.721H108.577V355.399H150.128C155.431 355.399 160.297 356.11 164.561 357.478C168.88 358.845 172.488 360.814 175.495 363.331C178.447 365.847 180.744 368.965 182.329 372.685C183.915 376.35 184.735 380.507 184.735 384.993C184.735 388.931 184.188 392.377 183.095 395.441C182.001 398.504 180.47 401.239 178.502 403.591C176.534 405.944 174.238 407.968 171.504 409.609C168.771 411.25 165.818 412.508 162.538 413.383L187.687 448.721H168.388H168.333ZM162.975 374.162C159.586 371.536 154.829 370.223 148.652 370.223H124.76V401.677H148.816C154.72 401.677 159.367 400.255 162.866 397.41C166.365 394.566 168.06 390.736 168.06 385.923C168.06 380.726 166.365 376.842 162.975 374.216" fill="currentColor"></path>
    <path d="M294.132 448.721H276.801L267.343 426.184H223.223L213.656 448.721H196.872L237.93 354.743H253.129L294.187 448.721H294.132ZM245.201 374.326L229.237 411.633H261.329L245.201 374.326Z" fill="currentColor"></path>
    <path d="M375.101 355.399H391.338V448.721H377.67L326.334 382.367V448.721H310.096V355.399H325.24L375.101 419.947V355.399Z" fill="currentColor"></path>
    <path d="M496.089 420.385C493.683 426.129 490.293 431.052 485.92 435.264C481.546 439.421 476.297 442.758 470.174 445.11C464.106 447.517 457.381 448.721 450.11 448.721H415.339V355.399H450.11C457.381 355.399 464.051 356.602 470.174 358.955C476.243 361.307 481.491 364.589 485.92 368.746C490.293 372.904 493.738 377.881 496.089 383.516C498.494 389.205 499.697 395.331 499.697 401.896C499.697 408.46 498.494 414.641 496.089 420.385ZM480.124 389.424C478.539 385.54 476.407 382.203 473.564 379.304C470.776 376.459 467.331 374.216 463.34 372.63C459.349 371.044 454.866 370.223 450.001 370.223H431.576V433.951H450.001C454.921 433.951 459.349 433.185 463.34 431.599C467.331 430.067 470.776 427.879 473.564 425.035C476.352 422.245 478.539 418.908 480.124 414.969C481.655 411.086 482.475 406.819 482.475 402.169C482.475 397.519 481.71 393.253 480.124 389.369" fill="currentColor"></path>
    <path d="M595.043 436.85C592.638 438.655 590.068 440.242 587.335 441.5C584.601 442.813 581.649 443.797 578.478 444.508C575.307 445.22 571.808 445.602 567.926 445.602C561.803 445.602 556.117 444.454 550.924 442.211C545.73 439.968 541.301 436.85 537.474 432.912C533.647 428.973 530.695 424.378 528.563 419.017C526.431 413.656 525.337 407.967 525.337 401.786C525.337 395.605 526.431 390.025 528.563 384.664C530.695 379.304 533.647 374.654 537.474 370.661C541.301 366.667 545.785 363.495 551.033 361.197C556.281 358.9 562.022 357.751 568.254 357.751C572.136 357.751 575.635 358.079 578.751 358.736C581.868 359.392 584.765 360.267 587.444 361.471C590.123 362.619 592.583 364.042 594.825 365.737C597.066 367.379 599.253 369.238 601.385 371.262L594.825 378.319C591.162 374.927 587.28 372.138 583.125 369.95C578.97 367.761 573.995 366.667 568.145 366.667C563.443 366.667 559.124 367.543 555.133 369.348C551.142 371.098 547.643 373.615 544.691 376.733C541.739 379.905 539.443 383.57 537.802 387.837C536.162 392.104 535.288 396.699 535.288 401.622C535.288 406.545 536.108 411.14 537.802 415.462C539.443 419.728 541.739 423.448 544.691 426.621C547.643 429.794 551.088 432.255 555.133 434.06C559.124 435.865 563.498 436.795 568.145 436.795C573.94 436.795 578.97 435.701 583.18 433.568C587.389 431.435 591.49 428.426 595.536 424.542L601.823 430.723C599.636 432.966 597.34 435.045 594.989 436.85" fill="currentColor"></path>
    <path d="M679.948 368.035H628.175V397.027H674.536V405.725H628.175V435.483H680.55V444.18H618.607V359.283H679.948V368.035Z" fill="currentColor"></path>
    <path d="M762.284 359.283H771.632V444.18H763.978L709.198 374.545V444.18H699.849V359.283H708.815L762.284 427.332V359.283Z" fill="currentColor"></path>
    <path d="M827.616 444.18H818.049V368.144H789.565V359.283H856.1V368.144H827.616V444.18Z" fill="currentColor"></path>
    <path d="M935.537 368.035H883.764V397.027H930.07V405.725H883.764V435.483H936.139V444.18H874.196V359.283H935.537V368.035Z" fill="currentColor"></path>
    <path d="M1013.83 444.18L989.225 411.195H965.005V444.18H955.438V359.283H991.904C996.605 359.283 1000.81 359.884 1004.59 361.088C1008.36 362.291 1011.59 364.042 1014.21 366.23C1016.89 368.473 1018.97 371.153 1020.39 374.271C1021.86 377.389 1022.57 380.835 1022.57 384.664C1022.57 388.22 1022.03 391.393 1020.88 394.183C1019.73 396.972 1018.15 399.379 1016.07 401.458C1013.99 403.537 1011.59 405.232 1008.74 406.6C1005.9 407.968 1002.84 408.952 999.558 409.499L1025.64 444.18H1013.88H1013.83ZM1007.27 372.575C1003.44 369.621 998.136 368.144 991.248 368.144H965.005V402.716H991.138C994.309 402.716 997.207 402.333 999.886 401.513C1002.56 400.692 1004.86 399.543 1006.83 398.066C1008.74 396.589 1010.27 394.73 1011.37 392.542C1012.46 390.353 1013.01 387.892 1013.01 385.102C1013.01 379.741 1011.09 375.584 1007.32 372.63" fill="currentColor"></path>
  </g>
</svg>
